<svg xmlns="http://www.w3.org/2000/svg" viewBox="0 0 16 16"><defs><style>.a{fill:none;}.b{fill:#c67842;}</style></defs><rect class="a" width="16" height="16"/><path class="b" d="M13.54,6.81a9.62,9.62,0,0,0-1.62-3.76c-.18-.24-.79-.91-.85-1A4,4,0,0,0,8.9.88a4.54,4.54,0,0,0-1,0,5,5,0,0,0-1.78.54,2.83,2.83,0,0,0-.49.28l-.09.05A7.86,7.86,0,0,0,2.66,6a12.78,12.78,0,0,0-.3,1.55,2.28,2.28,0,0,0,0,.64,1,1,0,0,0,0,.38.86.86,0,0,0,0,.42.29.29,0,0,0,0,.16.16.16,0,0,0,0,.16.29.29,0,0,0,0,.13.07.07,0,0,0,0,.06.76.76,0,0,0,.06.36l0,.07s0,0,0,0l.06.3a.12.12,0,0,0,0,.11c.07.32.48,1.3.48,1.31a6.42,6.42,0,0,0,1.49,2A5.32,5.32,0,0,0,7.29,15.1a4.3,4.3,0,0,0,1.34.05h.14a3.27,3.27,0,0,0,.92-.23,2.21,2.21,0,0,0,.65-.28l0,0a.37.37,0,0,0,.2-.09l0,0s.06,0,.09-.05h0s.07,0,.11-.06A5,5,0,0,0,12,13.21c.11,0,.11-.17.19-.24a.05.05,0,0,0,0-.05c.05-.07.12-.14.17-.22a7.93,7.93,0,0,0,1-2.44A10.66,10.66,0,0,0,13.54,6.81Z"/></svg>