<svg xmlns="http://www.w3.org/2000/svg" viewBox="0 0 246.73 246.94"><defs><style>.cls-1{fill:#f2f2f2;}.cls-1,.cls-2{stroke:#000;stroke-miterlimit:10;stroke-width:2.44px;}.cls-2{fill:none;}</style></defs><g id="Capa_2" data-name="Capa 2"><g id="Marca_Mixta" data-name="Marca Mixta"><g id="Capa_2-2" data-name="Capa 2"><ellipse class="cls-1" cx="123.55" cy="123.47" rx="121.96" ry="122.25"/><g id="a8ecaf9c-92f5-40a3-a210-3a712d5908a7"><path d="M236.24,170.42s-5.85,10.26-8.78,9.78a30.74,30.74,0,0,1-11.22-3.92c-2.93-1.46-4.88-3.91-6.83-6.35-.49-1-1-3.43-1.95-3.43a33,33,0,0,1-5.85-.49c-1,0-3.91-1-4.4-.48-1.46,1.46-5.36,2.44-5.85,3.91-3.41,5.87-6.83,12.22-8.29,14.18-1.95,2.44-3.91,5.38-6.34,7.33-3.42,2.94-3.42,2.94-7.32,6.36a93.42,93.42,0,0,0-6.83,7.34c-2.44,2.93-2.93,4.4-5.37,7.33a34.49,34.49,0,0,0-2.44,3.42,27.89,27.89,0,0,1-1.46,2.45c-1,1.47-6.34,2-8.78,7.33-1,3.43-2.93,6.36-4.88,9.29a17,17,0,0,1-10.73,3.92c-1,0-1.95-.49-2.93-.49-1.46-.49-2.44-1-3.9-1.47a52.09,52.09,0,0,0-9.27-3.42,11.43,11.43,0,0,1-3.9-1,9.77,9.77,0,0,1-5.86-3.91c-1.46-2.45,0-3.43-2-8.32-1-3.42-2-3.91-2-5.86a9.47,9.47,0,0,1,1.46-4.89c.49-.49.49-1,.49-2a1.05,1.05,0,0,0-1-1l-4.4-3.42A84,84,0,0,1,79.16,187c-12.69-16.14-9.27-35.21-6.83-35.7s2.93,4.89,4.88,7.34a36.05,36.05,0,0,0,7.8,6.85,57.68,57.68,0,0,0,9.27,5.37c2.93,1.47,4.88,2,6.83,1,.49,0,.49-.49,3.42-2.44l3.9-3.43c-1-4.89-2-10.26-2.44-15.15a59.54,59.54,0,0,1,0-13.21c.49-2.44,1-5.87,1.46-5.38s6.83,9.29,9.76,12.23c1-1,2.93-3.91,4.39-5.38,2.44-3.91,4.88-7.34,6.83-11.74a54.08,54.08,0,0,0,3.41-7.82,25.82,25.82,0,0,0,2.44-8.8c0-2.45-.48-2.94-.48-6.85V99c.48-2.44,1-4.89,1.46-7.82.49-2,1-3.43,1.46-5.38a13.48,13.48,0,0,0-.49-4.4c-.48-1.47-1-3.43-2.43-4.4-.49-.49-1,0-2,0-1-.49-2.43-1-3.41-1.47a23.09,23.09,0,0,1-4.88-4.89,25.16,25.16,0,0,1-4.88-11.74,15.67,15.67,0,0,1,1.47-9.29c.48-1,1-2.93,2-2.44s.49,1.46,1.46,3.91a41.45,41.45,0,0,0,3.9,5.87,5.92,5.92,0,0,0,2.44,2.44,18.2,18.2,0,0,0,7.32,4.4c2.44.49,4.88,1.47,7.32,1.47,1.46.49,3.41,1,4.39,2.45a3.63,3.63,0,0,1,1,2c0,1-.48,1.47-1.46,2l-1,.49a17.12,17.12,0,0,0-4.88,3.42s2.92-1.47,7.31-3.91a23.71,23.71,0,0,0,3.42-1.47,13.44,13.44,0,0,1,6.34-1.47h0a11.26,11.26,0,0,1,1.46-5.38A12,12,0,0,1,164,59.41c2-2.44,4.39-4.89,6.34-7.33,2-2,6.35-6.85,10.74-11.74,3.41-4.4,4.87-6.36,8.78-9.78a73.23,73.23,0,0,1,6.83-5.38s31.71,19.56,44.39,66C253.8,137.16,236.24,170.42,236.24,170.42Z"/></g><ellipse class="cls-2" cx="123.18" cy="123.47" rx="121.96" ry="122.25"/></g></g></g></svg>